<?xml version="1.0" encoding="UTF-8"?>
<svg version="1.1" xmlns="http://www.w3.org/2000/svg" width="256" height="256">
<path d="M0 0 C84.48 0 168.96 0 256 0 C256 84.48 256 168.96 256 256 C171.52 256 87.04 256 0 256 C0 171.52 0 87.04 0 0 Z " fill="#050706" transform="translate(0,0)"/>
<path d="M0 0 C11.55 0 23.1 0 35 0 C35 30.36 35 60.72 35 92 C33.35 90.35 31.7 88.7 30 87 C29.33790527 86.44626709 28.67581055 85.89253418 27.99365234 85.32202148 C24.66722035 82.26482002 23.15097889 80.04128891 22.49316406 75.50439453 C22.3959361 70.62559143 22.50263948 65.78502164 22.72167969 60.91137695 C23.22274161 52.02488143 23.22274161 52.02488143 19.95605469 43.99169922 C17.25599254 41.19089169 17.25599254 41.19089169 13 38 C12.67 46.25 12.34 54.5 12 63 C-0.23631616 50.76368384 -0.23631616 50.76368384 -0.79467773 42.45849609 C-0.79358825 40.47979704 -0.75515502 38.50084239 -0.68359375 36.5234375 C-0.67368912 35.47217682 -0.66378448 34.42091614 -0.65357971 33.33779907 C-0.61472907 30.01538162 -0.52696127 26.69640037 -0.4375 23.375 C-0.40234831 21.10812099 -0.37041612 18.84118964 -0.34179688 16.57421875 C-0.27104038 11.04712543 -0.13403524 5.52735804 0 0 Z " fill="#F8F8F8" transform="translate(90,104)"/>
<path d="M0 0 C3.96 0 7.92 0 12 0 C12.33 7.59 12.66 15.18 13 23 C20.57323096 17.73883021 20.57323096 17.73883021 22.31640625 11.62109375 C22.40312977 10.22684644 22.48494119 8.83228714 22.5625 7.4375 C22.60568359 6.72658203 22.64886719 6.01566406 22.69335938 5.28320312 C22.79971777 3.52238088 22.90038846 1.7612168 23 0 C26.96 0 30.92 0 35 0 C36.95308849 15.80833159 36.95308849 15.80833159 33.70800781 21.11132812 C31.00052983 24.25955833 27.96925385 26.83282486 24.74609375 29.43359375 C23.83988281 30.28050781 22.93367188 31.12742188 22 32 C22.25628504 35.19446644 23.46866082 36.83280837 25.72265625 39.015625 C26.26083984 39.54414063 26.79902344 40.07265625 27.35351562 40.6171875 C27.91748047 41.15601563 28.48144531 41.69484375 29.0625 42.25 C29.63033203 42.80429688 30.19816406 43.35859375 30.78320312 43.9296875 C32.18212469 45.29334214 33.59019114 46.64760417 35 48 C33.5742756 51.08768928 31.8621445 53.64509759 29.77734375 56.328125 C29.15666016 57.12734375 28.53597656 57.9265625 27.89648438 58.75 C27.25001953 59.575 26.60355469 60.4 25.9375 61.25 C25.28716797 62.09046875 24.63683594 62.9309375 23.96679688 63.796875 C20.37318589 68.40387681 20.37318589 68.40387681 19 70 C18.67 70 18.34 70 18 70 C18.02618408 69.39003174 18.05236816 68.78006348 18.0793457 68.15161133 C18.18365719 65.37217242 18.24842982 62.59314561 18.3125 59.8125 C18.35439453 58.85279297 18.39628906 57.89308594 18.43945312 56.90429688 C18.45556641 55.97294922 18.47167969 55.04160156 18.48828125 54.08203125 C18.51446533 53.22843018 18.54064941 52.3748291 18.56762695 51.49536133 C17.75819568 47.93699701 15.67716592 46.36591065 13 44 C13.00636475 45.04865234 13.01272949 46.09730469 13.01928711 47.17773438 C13.03380828 51.09953081 13.00221586 55.01987785 12.95727539 58.94140625 C12.94420289 60.63276211 12.94333958 62.32426107 12.95532227 64.015625 C13.05355927 79.8832395 13.05355927 79.8832395 8.75390625 84.84375 C7.53113234 85.92885839 6.2770085 86.97927206 5 88 C3.35 89.65 1.7 91.3 0 93 C0 62.31 0 31.62 0 0 Z " fill="#F5F5F5" transform="translate(131,103)"/>
<path d="M0 0 C1.67542976 0.28604898 3.34385343 0.61781233 5 1 C5.495 3.475 5.495 3.475 6 6 C5.01 6.33 4.02 6.66 3 7 C3.59561116 9.06498691 4.20186855 11.12690474 4.8125 13.1875 C5.14894531 14.33605469 5.48539063 15.48460938 5.83203125 16.66796875 C6.91888658 19.76859616 8.20178903 22.26404005 10 25 C14.23680777 24.75077601 16.4538651 24.4592498 19.75 21.6875 C20.4925 20.800625 21.235 19.91375 22 19 C22.8971875 18.0409375 22.8971875 18.0409375 23.8125 17.0625 C25.39685295 14.31072909 25.06797853 12.12701255 25 9 C25.66 8.34 26.32 7.68 27 7 C29.125 7.375 29.125 7.375 31 8 C31.625 9.875 31.625 9.875 32 12 C31.34 12.66 30.68 13.32 30 14 C29.01 14 28.02 14 27 14 C26.97306425 16.12493141 26.95363372 18.24995912 26.9375 20.375 C26.92589844 21.55835937 26.91429687 22.74171875 26.90234375 23.9609375 C26.78533407 26.91921521 26.78533407 26.91921521 28 29 C32.6159083 28.81898399 34.48415745 28.51584255 37.8125 25.1875 C39.44480537 22.80899789 40.88081817 20.64533886 42 18 C43.32 18.66 44.64 19.32 46 20 C45 23 45 23 42.66796875 24.37890625 C39.63123212 26.22406833 38.27768752 28.0007591 36.3125 30.9375 C35.73113281 31.79214844 35.14976562 32.64679688 34.55078125 33.52734375 C32.82152513 36.19634566 32.82152513 36.19634566 31 40 C11.86 40 -7.28 40 -27 40 C-28.65 37.03 -30.3 34.06 -32 31 C-35.71091584 25.83873651 -35.71091584 25.83873651 -41 23 C-41 21.68 -41 20.36 -41 19 C-39.35 19.33 -37.7 19.66 -36 20 C-35.938125 20.8353125 -35.938125 20.8353125 -35.875 21.6875 C-34.50615408 25.30516422 -32.12458282 26.83682728 -29 29 C-26.28694223 29.50379029 -26.28694223 29.50379029 -24 29 C-22.69881436 27.92243398 -22.69881436 27.92243398 -22.8671875 25.34765625 C-22.86976562 24.26355469 -22.87234375 23.17945312 -22.875 22.0625 C-22.87242188 20.98097656 -22.86984375 19.89945313 -22.8671875 18.78515625 C-22.80992211 16.04340337 -22.80992211 16.04340337 -24 14 C-24.99 13.67 -25.98 13.34 -27 13 C-27 11.35 -27 9.7 -27 8 C-25.02 8 -23.04 8 -21 8 C-21.12375 8.99 -21.2475 9.98 -21.375 11 C-21.40603103 16.0787453 -18.35750552 19.44643576 -15 23 C-12.12262918 25.28554031 -12.12262918 25.28554031 -8.5625 25.1875 C-5.01366126 24.39456116 -5.01366126 24.39456116 -3.7265625 22.203125 C-1.48687025 17.3195855 -0.14226125 12.23536408 1 7 C0.01 6.67 -0.98 6.34 -2 6 C-1.125 1.125 -1.125 1.125 0 0 Z " fill="#F9FAF9" transform="translate(126,58)"/>
<path d="M0 0 C3.63 0 7.26 0 11 0 C11 5.61 11 11.22 11 17 C6.39511011 14.69755506 2.97641654 12.23913871 0 8 C-0.58699158 5.07525065 -0.36948718 3.00868132 0 0 Z " fill="#0B0C0C" transform="translate(102,116)"/>
<path d="M0 0 C1.67542976 0.28604898 3.34385343 0.61781233 5 1 C5.33 2.65 5.66 4.3 6 6 C5.01 6.33 4.02 6.66 3 7 C2.67 7.99 2.34 8.98 2 10 C1.67 9.01 1.34 8.02 1 7 C0.01 6.67 -0.98 6.34 -2 6 C-1.125 1.125 -1.125 1.125 0 0 Z " fill="#E2E2E2" transform="translate(126,58)"/>
<path d="M0 0 C2.0625 0.4375 2.0625 0.4375 4 1 C4.625 2.875 4.625 2.875 5 5 C4.34 5.66 3.68 6.32 3 7 C2.01 7 1.02 7 0 7 C-0.33 7.99 -0.66 8.98 -1 10 C-1.8403457 6.63861721 -2.17718642 4.29612199 -1 1 C-0.67 0.67 -0.34 0.34 0 0 Z " fill="#D9D9D9" transform="translate(153,65)"/>
<path d="M0 0 C1.98 0 3.96 0 6 0 C5.979375 1.11375 5.95875 2.2275 5.9375 3.375 C5.73619282 6.83215921 5.73619282 6.83215921 7 9 C6.01 8.67 5.02 8.34 4 8 C3.67 7.34 3.34 6.68 3 6 C2.01 5.67 1.02 5.34 0 5 C0 3.35 0 1.7 0 0 Z " fill="#E9E9E9" transform="translate(99,66)"/>
<path d="M0 0 C1.32 0.66 2.64 1.32 4 2 C2.72920407 5.8123878 1.39322116 6.027197 -2 8 C-3.36984198 9.29579647 -4.7151049 10.61992749 -6 12 C-6 8.05279312 -4.47490891 6.98444897 -2 4 C-1.29114106 2.68861096 -0.60543548 1.36222983 0 0 Z " fill="#C8C9C9" transform="translate(168,76)"/>
<path d="M0 0 C2.475 0.495 2.475 0.495 5 1 C5.0825 1.556875 5.165 2.11375 5.25 2.6875 C6.22610013 5.69714206 7.95188814 7.62154752 10 10 C9.01 10.495 9.01 10.495 8 11 C6.79557292 9.47005208 5.59114583 7.94010417 4.38671875 6.41015625 C2.94316909 4.72844923 2.94316909 4.72844923 0 4 C0 2.68 0 1.36 0 0 Z " fill="#D4D5D4" transform="translate(85,77)"/>
</svg>
